<?xml version="1.0" standalone="no"?>
<!DOCTYPE svg PUBLIC "-//W3C//DTD SVG 20010904//EN"
 "http://www.w3.org/TR/2001/REC-SVG-20010904/DTD/svg10.dtd">
<svg version="1.0" xmlns="http://www.w3.org/2000/svg"
 width="512.000000pt" height="512.000000pt" viewBox="0 0 512.000000 512.000000"
 preserveAspectRatio="xMidYMid meet">

<g transform="translate(0.000000,512.000000) scale(0.100000,-0.100000)"
fill="#000000" stroke="none">
<path d="M2955 3895 c-17 -16 -25 -35 -25 -57 0 -30 50 -82 582 -615 l583
-583 -1623 0 -1623 0 -24 -25 c-33 -32 -33 -78 0 -110 l24 -25 1623 0 1623 0
-583 -583 c-532 -533 -582 -585 -582 -615 0 -44 38 -82 82 -82 30 0 85 52 646
613 337 336 623 628 635 647 31 49 31 151 0 200 -12 19 -298 311 -635 648
-561 560 -616 612 -646 612 -22 0 -41 -8 -57 -25z"/>
</g>
</svg>
